<svg width="68" height="68" viewBox="0 0 68 68" fill="none" xmlns="http://www.w3.org/2000/svg">
<g id="danger 1" clip-path="url(#clip0_85361_2475)">
<g id="Capa 1">
<path id="Vector" d="M34.1798 67.423C52.7178 67.423 67.7458 52.395 67.7458 33.857C67.7458 15.319 52.7178 0.291016 34.1798 0.291016C15.6418 0.291016 0.61377 15.319 0.61377 33.857C0.61377 52.395 15.6418 67.423 34.1798 67.423Z" fill="#FFC2C2"/>
<path id="Vector_2" d="M34.1798 65.2065C16.8924 65.2065 2.82568 51.1398 2.82568 33.8524C2.82568 16.5649 16.8877 2.50293 34.1798 2.50293C51.472 2.50293 65.534 16.5697 65.534 33.8571C65.534 51.1445 51.4673 65.2113 34.1798 65.2113V65.2065ZM34.1798 3.45019C17.4134 3.45019 3.77294 17.0907 3.77294 33.8571C3.77294 50.6235 17.4134 64.264 34.1798 64.264C50.9463 64.264 64.5868 50.6235 64.5868 33.8571C64.5868 17.0907 50.9415 3.45019 34.1798 3.45019Z" fill="#5F6773"/>
<g id="Group">
<path id="Vector_3" d="M30.4854 28.0504L21.0412 13.1074C14.131 17.4601 9.52261 25.1376 9.47998 33.8997H27.2552C27.2552 31.4368 28.5435 29.2818 30.4806 28.0551L30.4854 28.0504Z" fill="#5F6773"/>
<path id="Vector_4" d="M39.4276 33.895C39.4276 36.7936 37.0784 39.1428 34.1798 39.1428C31.2812 39.1428 28.9272 36.7936 28.9272 33.895C28.9272 30.9964 31.2764 28.6472 34.1798 28.6472C37.0831 28.6472 39.4276 30.9964 39.4276 33.895Z" fill="#5F6773"/>
<path id="Vector_5" d="M47.3133 13.1074L37.8691 28.0551C39.8063 29.2818 41.0945 31.4368 41.0945 33.8997H58.8698C58.8272 25.1376 54.2235 17.4601 47.3133 13.1074Z" fill="#5F6773"/>
<path id="Vector_6" d="M37.8694 39.7395C36.799 40.4168 35.5344 40.8146 34.1751 40.8146C32.8157 40.8146 31.5512 40.4168 30.4808 39.7395L21.0366 54.6872C24.8399 57.0838 29.3441 58.4762 34.1703 58.4762C38.9966 58.4762 43.5008 57.0838 47.304 54.6872L37.8599 39.7395H37.8694Z" fill="#5F6773"/>
</g>
</g>
</g>
<defs>
<clipPath id="clip0_85361_2475">
<rect width="67.1273" height="67.1273" fill="white" transform="translate(0.61377 0.291016)"/>
</clipPath>
</defs>
</svg>
