<svg width="24" height="24" viewBox="0 0 24 24" fill="none" xmlns="http://www.w3.org/2000/svg">
<g id="dozimetr">
<path id="Vector" d="M11.5269 19.4283C10.8722 19.805 10.1292 20.0027 9.37301 20.0015C8.61683 20.0027 7.87377 19.805 7.21916 19.4283L8.51147 17.4297C8.51147 17.4297 8.94224 17.6012 9.37301 17.6012C9.80378 17.6012 10.2345 17.4297 10.2345 17.4297L11.5269 19.4283ZM11.526 12.0019C12.1811 12.3776 12.7247 12.9191 13.1017 13.5714C13.481 14.2226 13.6805 14.9621 13.6798 15.7149L11.2947 15.6C11.2947 15.6 11.2283 15.143 11.0129 14.7717C10.7976 14.4005 10.4331 14.115 10.4331 14.115L11.526 12.0019ZM5.06445 15.7149C5.06381 14.9621 5.26326 14.2226 5.64255 13.5714C6.01962 12.9193 6.56324 12.3779 7.2183 12.0023L8.31116 14.115C8.31116 14.115 7.94716 14.4005 7.73178 14.7717C7.51639 15.143 7.45005 15.6 7.45005 15.6L5.06445 15.7149ZM9.37301 16.5723C9.14451 16.5723 8.92538 16.4819 8.76381 16.3211C8.60224 16.1604 8.51147 15.9423 8.51147 15.7149C8.51147 15.4875 8.60224 15.2694 8.76381 15.1086C8.92538 14.9478 9.14451 14.8575 9.37301 14.8575C9.6015 14.8575 9.82064 14.9478 9.98221 15.1086C10.1438 15.2694 10.2345 15.4875 10.2345 15.7149C10.2345 15.9423 10.1438 16.1604 9.98221 16.3211C9.82064 16.4819 9.6015 16.5723 9.37301 16.5723Z" fill="black" fill-opacity="0.8956" stroke="black" stroke-opacity="0.8956" stroke-width="0.5" stroke-linecap="round" stroke-linejoin="round"/>
<rect id="Rectangle 324" x="1.62207" y="0.751465" width="15.5" height="22.5" rx="1.25" stroke="black" stroke-width="1.5"/>
<path id="Vector 8" d="M22.1279 0.746582C22.1279 0.332368 21.7921 -0.00341797 21.3779 -0.00341797C20.9637 -0.00341797 20.6279 0.332368 20.6279 0.746582H22.1279ZM21.3779 8.5166V9.2666C21.7921 9.2666 22.1279 8.93081 22.1279 8.5166H21.3779ZM20.6279 0.746582V8.5166H22.1279V0.746582H20.6279ZM21.3779 7.7666H17.1074V9.2666H21.3779V7.7666Z" fill="black"/>
<path id="Vector 9" d="M19.6279 4.51562H23.1279" stroke="black" stroke-width="1.5" stroke-linecap="round" stroke-linejoin="round"/>
<path id="Vector 10" d="M20.1279 2.12671H22.6279" stroke="black" stroke-width="1.5" stroke-linecap="round" stroke-linejoin="round"/>
<path id="Rectangle 325" d="M4.62793 8.51001V4.01001H14.1157V8.51001H4.62793Z" stroke="black" stroke-width="1.5" stroke-linejoin="round"/>
</g>
</svg>
