<svg width="16" height="16" viewBox="0 0 16 16" fill="none" xmlns="http://www.w3.org/2000/svg">
<g id="icon_wind">
<g id="Vector">
<path d="M12 11.8196C12 12.3983 11.7592 12.9533 11.3305 13.3624C10.9019 13.7716 10.3205 14.0015 9.71429 14.0015C8.73571 14.0015 7.78929 13.3926 7.46429 12.5546C7.41483 12.4197 7.42283 12.2717 7.48656 12.1424C7.55028 12.013 7.66464 11.9127 7.80504 11.863C7.94544 11.8134 8.10066 11.8183 8.2373 11.8767C8.37395 11.9352 8.4811 12.0425 8.53572 12.1756C8.69571 12.5881 9.21429 12.9106 9.71429 12.9106C10.0174 12.9106 10.3081 12.7956 10.5224 12.591C10.7367 12.3865 10.8571 12.109 10.8571 11.8196C10.8571 11.5303 10.7367 11.2528 10.5224 11.0483C10.3081 10.8437 10.0174 10.7287 9.71429 10.7287H1.71429C1.56273 10.7287 1.41739 10.6713 1.31022 10.569C1.20306 10.4667 1.14286 10.3279 1.14286 10.1833C1.14286 10.0386 1.20306 9.89988 1.31022 9.79759C1.41739 9.6953 1.56273 9.63783 1.71429 9.63783H9.71429C10.3205 9.63783 10.9019 9.8677 11.3305 10.2769C11.7592 10.686 12 11.241 12 11.8196ZM7.42857 6.3651C8.03478 6.3651 8.61616 6.13523 9.04482 5.72606C9.47347 5.31689 9.71429 4.76194 9.71429 4.18328C9.71429 3.60463 9.47347 3.04967 9.04482 2.6405C8.61616 2.23133 8.03478 2.00146 7.42857 2.00146C6.45 2.00146 5.50357 2.61033 5.17857 3.44828C5.12912 3.58319 5.13712 3.73124 5.20084 3.86057C5.26457 3.98991 5.37893 4.09021 5.51933 4.13988C5.65973 4.18956 5.81495 4.18465 5.95159 4.1262C6.08823 4.06776 6.19539 3.96046 6.25 3.82737C6.41 3.41487 6.92857 3.09237 7.42857 3.09237C7.73168 3.09237 8.02237 3.20731 8.23669 3.41189C8.45102 3.61648 8.57143 3.89396 8.57143 4.18328C8.57143 4.47261 8.45102 4.75009 8.23669 4.95467C8.02237 5.15926 7.73168 5.27419 7.42857 5.27419H0.571429C0.419876 5.27419 0.274531 5.33166 0.167368 5.43395C0.0602039 5.53624 0 5.67498 0 5.81965C0 5.96431 0.0602039 6.10305 0.167368 6.20534C0.274531 6.30763 0.419876 6.3651 0.571429 6.3651H7.42857ZM13.7143 4.18328C12.7357 4.18328 11.7893 4.79215 11.4643 5.6301C11.4148 5.76501 11.4228 5.91306 11.4866 6.04239C11.5503 6.17173 11.6646 6.27202 11.805 6.3217C11.9454 6.37138 12.1007 6.36646 12.2373 6.30802C12.374 6.24958 12.4811 6.14227 12.5357 6.00919C12.6957 5.59669 13.2143 5.27419 13.7143 5.27419C14.0174 5.27419 14.3081 5.38913 14.5224 5.59371C14.7367 5.7983 14.8571 6.07577 14.8571 6.3651C14.8571 6.65443 14.7367 6.93191 14.5224 7.13649C14.3081 7.34108 14.0174 7.45601 13.7143 7.45601H1.14286C0.991305 7.45601 0.84596 7.51348 0.738796 7.61577C0.631633 7.71806 0.571429 7.8568 0.571429 8.00146C0.571429 8.14613 0.631633 8.28487 0.738796 8.38716C0.84596 8.48945 0.991305 8.54692 1.14286 8.54692H13.7143C14.3205 8.54692 14.9019 8.31705 15.3305 7.90788C15.7592 7.49871 16 6.94376 16 6.3651C16 5.78645 15.7592 5.23149 15.3305 4.82232C14.9019 4.41315 14.3205 4.18328 13.7143 4.18328Z" fill="black" fill-opacity="0.8956"/>
<path d="M8.69958 5.36438L9.04482 5.72606L6.25 3.82737L5.78743 3.63755C5.78725 3.63799 5.78705 3.63845 5.78682 3.63893C5.78331 3.64639 5.77421 3.65826 5.75497 3.66649C5.73397 3.67547 5.70848 3.67643 5.68611 3.66852C5.66418 3.66076 5.65335 3.64769 5.64935 3.63959C5.64736 3.63554 5.64668 3.6322 5.64654 3.62955C5.64642 3.62739 5.64662 3.625 5.6474 3.62227C5.89229 3.00117 6.63545 2.50146 7.42857 2.50146C7.90948 2.50146 8.36629 2.68404 8.69958 3.00218L9.03739 2.64828L8.69958 3.00218C9.03208 3.31957 9.21429 3.74494 9.21429 4.18328C9.21429 4.62163 9.03208 5.047 8.69958 5.36438ZM11.5 11.8196C11.5 12.258 11.3178 12.6834 10.9853 13.0007C10.652 13.3189 10.1952 13.5015 9.71429 13.5015C8.92116 13.5015 8.178 13.0018 7.93312 12.3807C7.93233 12.3779 7.93213 12.3755 7.93225 12.3734C7.93239 12.3707 7.93307 12.3674 7.93507 12.3633C7.93906 12.3552 7.9499 12.3422 7.97182 12.3344C7.99419 12.3265 8.01969 12.3275 8.04068 12.3364C8.05995 12.3447 8.06905 12.3566 8.07255 12.364C8.20172 12.691 8.4552 12.949 8.73308 13.1221C9.01566 13.2982 9.36085 13.4106 9.71429 13.4106C10.1427 13.4106 10.558 13.2483 10.8676 12.9527C11.1781 12.6563 11.3571 12.2493 11.3571 11.8196C11.3571 11.39 11.1781 10.9829 10.8676 10.6866C10.558 10.391 10.1427 10.2287 9.71429 10.2287H1.71429C1.68803 10.2287 1.66726 10.2186 1.65546 10.2073C1.64445 10.1968 1.64286 10.1876 1.64286 10.1833C1.64286 10.1789 1.64445 10.1698 1.65546 10.1593C1.66726 10.148 1.68803 10.1378 1.71429 10.1378H9.71429C10.1952 10.1378 10.652 10.3204 10.9853 10.6385C11.3178 10.9559 11.5 11.3813 11.5 11.8196ZM11.9331 5.80408C12.178 5.18299 12.9212 4.68328 13.7143 4.68328C14.1952 4.68328 14.652 4.86586 14.9853 5.184C15.3178 5.50139 15.5 5.92676 15.5 6.3651C15.5 6.80344 15.3178 7.22882 14.9853 7.5462C14.652 7.86434 14.1952 8.04692 13.7143 8.04692H1.14286C1.1166 8.04692 1.09583 8.03675 1.08403 8.02548C1.07302 8.01497 1.07143 8.00582 1.07143 8.00146C1.07143 7.99711 1.07302 7.98796 1.08403 7.97745C1.09583 7.96618 1.1166 7.95601 1.14286 7.95601H13.7143C14.1427 7.95601 14.558 7.79378 14.8676 7.49817C15.1781 7.2018 15.3571 6.79474 15.3571 6.3651C15.3571 5.93546 15.1781 5.5284 14.8676 5.23203C14.558 4.93642 14.1427 4.77419 13.7143 4.77419C13.3609 4.77419 13.0157 4.88656 12.7331 5.06264C12.4552 5.2358 12.2017 5.4938 12.0725 5.82075C12.069 5.82821 12.0599 5.84008 12.0407 5.8483C12.0197 5.85729 11.9942 5.85825 11.9718 5.85034C11.9499 5.84258 11.9391 5.82951 11.9351 5.82141C11.9331 5.81736 11.9324 5.81402 11.9323 5.81137C11.9321 5.80921 11.9323 5.80682 11.9331 5.80408Z" stroke="black" stroke-opacity="0.8956"/>
</g>
</g>
</svg>
