<svg width="16" height="16" viewBox="0 0 16 16" fill="none" xmlns="http://www.w3.org/2000/svg">
<g id="icon_humidity" clip-path="url(#clip0_85363_3380)">
<g id="Vector">
<path d="M8 0.00146484L7.25 0.81799C7.25 0.81799 5.97 2.22747 4.68 4.05493C3.39 5.88239 2 8.06951 2 10.1691C2 11.716 2.63214 13.1994 3.75736 14.2932C4.88258 15.387 6.4087 16.0015 8 16.0015C9.5913 16.0015 11.1174 15.387 12.2426 14.2932C13.3679 13.1994 14 11.716 14 10.1691C14 8.06951 12.61 5.88239 11.32 4.05493C10.5243 2.93146 9.6664 1.85088 8.75 0.81799L8 0.00146484ZM8 3.04399C8.44 3.54946 8.84 3.96744 9.68 5.15335C10.89 6.86416 12 9.04156 12 10.1691C12 12.3271 10.22 14.0574 8 14.0574C5.78 14.0574 4 12.3271 4 10.1691C4 9.04156 5.11 6.86416 6.32 5.15335C7.16 3.96744 7.56 3.54946 8 3.04399Z" fill="black" fill-opacity="0.8956"/>
<path d="M7.61959 1.15474L8 0.740597L8.37884 1.15304C9.28205 2.1713 10.1276 3.23645 10.9119 4.34376C11.5536 5.25289 12.2044 6.22979 12.6948 7.23008C13.1864 8.23271 13.5 9.22576 13.5 10.1691C13.5 11.5787 12.9241 12.9335 11.8941 13.9347C10.8637 14.9363 9.46319 15.5015 8 15.5015C6.53681 15.5015 5.1363 14.9363 4.10587 13.9347C3.07592 12.9335 2.5 11.5787 2.5 10.1691C2.5 9.22576 2.81362 8.23271 3.3052 7.23008C3.79571 6.22961 4.44663 5.25254 5.08848 4.34327C5.72401 3.44296 6.3581 2.64423 6.83376 2.07018C7.07137 1.78341 7.26892 1.55335 7.40665 1.39543C7.47551 1.31649 7.52938 1.25561 7.56579 1.21474L7.607 1.1687L7.6172 1.15739L7.61937 1.15499L7.61959 1.15474ZM8.37713 2.71571L8 2.28246L7.62287 2.71571C7.56393 2.78341 7.50542 2.84987 7.4462 2.91713C7.06436 3.35085 6.65334 3.8177 5.91198 4.86434L5.91178 4.86463C5.29237 5.74041 4.69735 6.73694 4.25493 7.66475C3.82315 8.57026 3.5 9.48446 3.5 10.1691C3.5 12.6165 5.51731 14.5574 8 14.5574C10.4827 14.5574 12.5 12.6165 12.5 10.1691C12.5 9.48446 12.1768 8.57026 11.7451 7.66475C11.3026 6.73694 10.7076 5.74041 10.0882 4.86463L10.088 4.86434C9.34666 3.8177 8.93564 3.35085 8.5538 2.91714C8.49458 2.84987 8.43607 2.78341 8.37713 2.71571Z" stroke="black" stroke-opacity="0.8956"/>
</g>
</g>
<defs>
<clipPath id="clip0_85363_3380">
<rect width="16" height="16" fill="white" transform="translate(0 0.00146484)"/>
</clipPath>
</defs>
</svg>
