<svg width="16" height="16" viewBox="0 0 16 16" fill="none" xmlns="http://www.w3.org/2000/svg">
<g id="icon_radiation">
<path id="Vector" d="M11.5014 14.07C10.4377 14.6822 9.23018 15.0035 8.0014 15.0015C6.77262 15.0036 5.56514 14.6822 4.5014 14.07L6.6014 10.8223C6.6014 10.8223 7.3014 11.101 8.0014 11.101C8.7014 11.101 9.4014 10.8223 9.4014 10.8223L11.5014 14.07ZM11.5 2.00216C12.5646 2.61274 13.4479 3.49261 14.0606 4.55256C14.6769 5.61085 15.001 6.81256 15 8.03576L11.1241 7.84906C11.1241 7.84906 11.0163 7.10644 10.6663 6.50315C10.3163 5.89986 9.7241 5.4359 9.7241 5.4359L11.5 2.00216ZM1 8.03576C0.99896 6.81256 1.32305 5.61085 1.9394 4.55256C2.55215 3.49287 3.43554 2.61325 4.5 2.00286L6.2759 5.4359C6.2759 5.4359 5.6844 5.89986 5.3344 6.50315C4.9844 7.10644 4.8766 7.84906 4.8766 7.84906L1 8.03576ZM8.0014 9.42904C7.6301 9.42904 7.274 9.28224 7.01145 9.02095C6.7489 8.75966 6.6014 8.40528 6.6014 8.03576C6.6014 7.66624 6.7489 7.31185 7.01145 7.05056C7.274 6.78927 7.6301 6.64248 8.0014 6.64248C8.3727 6.64248 8.7288 6.78927 8.99135 7.05056C9.2539 7.31185 9.4014 7.66624 9.4014 8.03576C9.4014 8.40528 9.2539 8.75966 8.99135 9.02095C8.7288 9.28224 8.3727 9.42904 8.0014 9.42904Z" fill="black" fill-opacity="0.8956" stroke="black" stroke-opacity="0.8956" stroke-linecap="round" stroke-linejoin="round"/>
</g>
</svg>
