<svg width="16" height="16" viewBox="0 0 16 16" fill="none" xmlns="http://www.w3.org/2000/svg">
<g id="icon_waves">
<g id="Vector">
<path d="M1 6.40146C2.93122 6.40146 4.37944 4.00146 4.37944 4.00146C4.37944 4.00146 5.82767 6.40146 7.75889 6.40146C9.68933 6.40146 11.6206 4.00146 11.6206 4.00146C11.6206 4.00146 13.5518 6.40146 15 6.40146M1 12.0015C2.93122 12.0015 4.37944 9.60146 4.37944 9.60146C4.37944 9.60146 5.82767 12.0015 7.75889 12.0015C9.68933 12.0015 11.6206 9.60146 11.6206 9.60146C11.6206 9.60146 13.5518 12.0015 15 12.0015" fill="black" fill-opacity="0.8956"/>
<path d="M1 6.40146C2.93122 6.40146 4.37944 4.00146 4.37944 4.00146C4.37944 4.00146 5.82767 6.40146 7.75889 6.40146C9.68933 6.40146 11.6206 4.00146 11.6206 4.00146C11.6206 4.00146 13.5518 6.40146 15 6.40146M1 12.0015C2.93122 12.0015 4.37944 9.60146 4.37944 9.60146C4.37944 9.60146 5.82767 12.0015 7.75889 12.0015C9.68933 12.0015 11.6206 9.60146 11.6206 9.60146C11.6206 9.60146 13.5518 12.0015 15 12.0015" stroke="black" stroke-opacity="0.8956" stroke-width="1.5" stroke-linecap="round" stroke-linejoin="round"/>
</g>
</g>
</svg>
