<svg width="16" height="16" viewBox="0 0 16 16" fill="none" xmlns="http://www.w3.org/2000/svg">
<g id="icon_speed">
<g id="Vector">
<path d="M6.75944 11.064C7.07941 11.414 7.49271 11.5855 7.99933 11.5785C8.50596 11.5715 8.87926 11.3708 9.11924 10.9765L13.5989 3.62647L6.87943 8.52646C6.51946 8.78896 6.32961 9.19001 6.30987 9.72959C6.29014 10.2692 6.44 10.714 6.75944 11.064ZM7.99933 1.00147C8.78593 1.00147 9.54267 1.12192 10.2695 1.36284C10.9964 1.60376 11.6796 1.96455 12.319 2.44522L10.7991 3.49522C10.3591 3.2473 9.90264 3.06151 9.42961 2.93784C8.95659 2.81417 8.47983 2.75205 7.99933 2.75147C6.22615 2.75147 4.71614 3.43309 3.46931 4.79634C2.22248 6.15959 1.59933 7.8113 1.59987 9.75146C1.59987 10.364 1.67666 10.9692 1.83025 11.5671C1.98383 12.165 2.20035 12.7265 2.47979 13.2515H13.5189C13.8255 12.6973 14.049 12.1213 14.1892 11.5233C14.3295 10.9254 14.3993 10.3056 14.3988 9.66396C14.3988 9.13896 14.342 8.62855 14.2284 8.13271C14.1148 7.63688 13.945 7.15563 13.7189 6.68897L14.6788 5.02647C15.0787 5.71188 15.3955 6.44105 15.6291 7.21397C15.8627 7.98688 15.9859 8.78896 15.9987 9.62021C16.012 10.4515 15.9253 11.2463 15.7387 12.0046C15.552 12.7629 15.2787 13.4848 14.9188 14.1702C14.7721 14.4327 14.5721 14.6369 14.3188 14.7827C14.0655 14.9285 13.7988 15.0015 13.5189 15.0015H2.47979C2.19982 15.0015 1.93317 14.9285 1.67986 14.7827C1.42655 14.6369 1.22656 14.4327 1.07991 14.1702C0.733272 13.514 0.466628 12.8175 0.279977 12.0807C0.0933255 11.344 0 10.5675 0 9.75146C0 8.54105 0.210116 7.40705 0.630348 6.34947C1.05058 5.29188 1.62386 4.36613 2.3502 3.57222C3.07654 2.77713 3.92607 2.14976 4.89879 1.69009C5.87151 1.23042 6.90502 1.00088 7.99933 1.00147Z" fill="black" fill-opacity="0.8956"/>
<path d="M11.866 5.50894L8.69229 10.7162L8.69212 10.7165C8.55153 10.9475 8.34706 11.0736 7.99243 11.0785C7.61771 11.0837 7.34512 10.9634 7.12874 10.7269L11.866 5.50894ZM11.866 5.50894L7.17403 8.93046C6.96444 9.0833 6.82499 9.32542 6.80954 9.74786C6.79387 10.1763 6.91015 10.4874 7.12872 10.7269L11.866 5.50894ZM7.99933 1.50147H7.99907C6.97741 1.50092 6.01709 1.71465 5.11242 2.14216C4.19858 2.574 3.40186 3.16235 2.71936 3.90945L2.71911 3.90972C2.03601 4.65638 1.49416 5.52958 1.09501 6.5341C0.699581 7.52926 0.5 8.60021 0.5 9.75146C0.5 10.5292 0.588901 11.2641 0.764664 11.9579C0.941277 12.655 1.19286 13.3124 1.5191 13.9311C1.62266 14.1147 1.75815 14.2508 1.92932 14.3494C2.11023 14.4535 2.2913 14.5015 2.47979 14.5015H13.5189C13.7074 14.5015 13.8884 14.4535 14.0693 14.3494C14.2404 14.2509 14.3758 14.1149 14.4793 13.9316C14.8187 13.2841 15.0767 12.6023 15.2532 11.8851C15.4289 11.1711 15.5114 10.4193 15.4987 9.62823L15.4987 9.62791C15.4866 8.8417 15.3702 8.08578 15.1505 7.35861C15.0152 6.91106 14.8509 6.47941 14.6574 6.06346L14.2815 6.71446C14.4684 7.13824 14.6133 7.57388 14.7158 8.02106C14.838 8.55455 14.8988 9.10233 14.8988 9.66355C14.8988 9.66369 14.8988 9.66383 14.8988 9.66396H14.3988L7.99933 1.50147ZM7.99933 1.50147C8.73395 1.50147 9.43749 1.61381 10.1122 1.83745C10.5703 1.98927 11.0107 2.19278 11.4338 2.44899M7.99933 1.50147L11.4338 2.44899M11.4338 2.44899L10.7652 2.91093C10.3751 2.71535 9.97194 2.56282 9.55608 2.4541C9.04269 2.31988 8.52365 2.2521 7.99994 2.25147H7.99933C6.07928 2.25147 4.43742 2.99698 3.10035 4.45889C1.76469 5.91927 1.09933 7.69329 1.09987 9.75146L11.4338 2.44899Z" stroke="black" stroke-opacity="0.8956"/>
</g>
</g>
</svg>
