<svg width="15" height="16" viewBox="0 0 15 16" fill="none" xmlns="http://www.w3.org/2000/svg">
<g id="&#240;&#159;&#166;&#134; icon &#34;Alert&#34;">
<path id="Vector" d="M7.33335 0.00146484C4.01964 0.00146484 1.33335 2.68776 1.33335 6.00146V9.20333L0.0476005 12.4208C-0.0344662 12.6261 -0.00934631 12.8588 0.11468 13.042C0.23872 13.2251 0.445494 13.3348 0.666667 13.3348H4.66667C4.66667 14.8127 5.85552 16.0015 7.33333 16.0015C8.81115 16.0015 10 14.8127 10 13.3348H14C14.2212 13.3348 14.428 13.2251 14.552 13.042C14.676 12.8588 14.7012 12.6261 14.6191 12.4208L13.3333 9.20333V6.00146C13.3333 2.68776 10.6471 0.00146484 7.33335 0.00146484ZM8.66667 13.3348C8.66667 14.0763 8.07476 14.6681 7.33333 14.6681C6.59191 14.6681 6 14.0763 6 13.3348H8.66667ZM2.66668 6.00146C2.66668 3.42413 4.75601 1.3348 7.33335 1.3348C9.91067 1.3348 12 3.42413 12 6.00146V9.3316C12 9.41634 12.0161 9.50031 12.0476 9.579L13.0156 12.0015H1.65101L2.61908 9.579C2.65052 9.50031 2.66668 9.41634 2.66668 9.3316V6.00146Z" fill="black" fill-opacity="0.8956"/>
</g>
</svg>
