<svg width="16" height="16" viewBox="0 0 16 16" fill="none" xmlns="http://www.w3.org/2000/svg">
<g id="icon_temperature" clip-path="url(#clip0_85363_3406)">
<g id="Vector">
<path d="M5.14286 2.87927C5.14286 2.11603 5.44388 1.38405 5.9797 0.844354C6.51551 0.304661 7.24224 0.00146484 8 0.00146484C8.75776 0.00146484 9.48449 0.304661 10.0203 0.844354C10.5561 1.38405 10.8571 2.11603 10.8571 2.87927V9.15288C11.4084 9.71955 11.7813 10.4375 11.929 11.2168C12.0767 11.9961 11.9928 12.8019 11.6877 13.5333C11.3825 14.2647 10.8698 14.8891 10.2138 15.3282C9.55777 15.7672 8.78765 16.0015 8 16.0015C7.21235 16.0015 6.44223 15.7672 5.78621 15.3282C5.13019 14.8891 4.61747 14.2647 4.31234 13.5333C4.00721 12.8019 3.92326 11.9961 4.071 11.2168C4.21875 10.4375 4.59162 9.71955 5.14286 9.15288V2.87927ZM8 1.15259C7.54534 1.15259 7.10931 1.3345 6.78782 1.65832C6.46633 1.98214 6.28572 2.42132 6.28572 2.87927V9.65592L6.096 9.82859C5.66466 10.2171 5.3606 10.7284 5.22408 11.2948C5.08756 11.8612 5.12501 12.456 5.33146 13.0005C5.53792 13.545 5.90365 14.0135 6.38027 14.344C6.85688 14.6746 7.42191 14.8516 8.00057 14.8516C8.57924 14.8516 9.14426 14.6746 9.62087 14.344C10.0975 14.0135 10.4632 13.545 10.6697 13.0005C10.8761 12.456 10.9136 11.8612 10.7771 11.2948C10.6405 10.7284 10.3365 10.2171 9.90514 9.82859L9.71428 9.65477V2.87927C9.71428 2.42132 9.53367 1.98214 9.21218 1.65832C8.89069 1.3345 8.45466 1.15259 8 1.15259ZM8.57143 5.75707C8.57143 5.60442 8.51122 5.45803 8.40406 5.35009C8.2969 5.24215 8.15155 5.18151 8 5.18151C7.84845 5.18151 7.7031 5.24215 7.59594 5.35009C7.48878 5.45803 7.42857 5.60442 7.42857 5.75707V10.4594C7.04731 10.5952 6.72597 10.8623 6.52135 11.2137C6.31674 11.565 6.24202 11.9779 6.3104 12.3793C6.37879 12.7808 6.58587 13.1449 6.89505 13.4075C7.20423 13.67 7.59561 13.814 8 13.814C8.40439 13.814 8.79577 13.67 9.10495 13.4075C9.41413 13.1449 9.62121 12.7808 9.6896 12.3793C9.75798 11.9779 9.68326 11.565 9.47865 11.2137C9.27403 10.8623 8.95269 10.5952 8.57143 10.4594V5.75707Z" fill="black" fill-opacity="0.8956"/>
<path d="M10.3571 9.15288V9.35595L10.4987 9.50152C10.9814 9.99765 11.3082 10.6267 11.4377 11.3099C11.5673 11.9932 11.4936 12.6997 11.2262 13.3408C10.9588 13.9818 10.5096 14.5285 9.93568 14.9126C9.36176 15.2968 8.68839 15.5015 8 15.5015C7.31161 15.5015 6.63824 15.2968 6.06432 14.9126C5.49035 14.5285 5.04122 13.9818 4.7738 13.3408C4.50635 12.6997 4.43271 11.9932 4.56225 11.3099C4.69179 10.6267 5.01864 9.99765 5.50126 9.50152L5.64286 9.35595V9.15288V2.87927C5.64286 2.24748 5.89207 1.64228 6.33452 1.19663C6.77685 0.751101 7.37601 0.501465 8 0.501465C8.62399 0.501465 9.22315 0.751101 9.66548 1.19663C10.1079 1.64228 10.3571 2.24748 10.3571 2.87927V9.15288ZM7.95076 5.70237L7.59594 5.35009L7.95076 5.70237C7.96444 5.68859 7.98222 5.68151 8 5.68151C8.01778 5.68151 8.03556 5.68859 8.04924 5.70237C8.06303 5.71626 8.07143 5.73587 8.07143 5.75707V10.4594V10.8121L8.40369 10.9304C8.67315 11.0264 8.9011 11.2155 9.04658 11.4653C9.19211 11.7152 9.24543 12.0092 9.1967 12.2954C9.14796 12.5814 9.00051 12.8402 8.78132 13.0264C8.56221 13.2124 8.28544 13.314 8 13.314C7.71456 13.314 7.43779 13.2124 7.21869 13.0264C6.99949 12.8402 6.85204 12.5814 6.8033 12.2954C6.75457 12.0092 6.80789 11.7152 6.95342 11.4653C7.0989 11.2155 7.32685 11.0264 7.59631 10.9304L7.92857 10.8121V10.4594V5.75707C7.92857 5.73587 7.93697 5.71626 7.95076 5.70237ZM8 0.652586C7.41157 0.652586 6.84797 0.888064 6.43299 1.30604C6.01814 1.7239 5.78572 2.28987 5.78572 2.87927V9.43491L5.76137 9.45708C5.76103 9.45738 5.7607 9.45768 5.76037 9.45798C5.25427 9.91421 4.89798 10.5139 4.738 11.1776C4.57793 11.8418 4.62181 12.5392 4.86394 13.1778C5.10609 13.8164 5.53529 14.3665 6.09533 14.7549C6.65542 15.1433 7.31981 15.3516 8.00057 15.3516C8.68133 15.3516 9.34572 15.1433 9.90581 14.7549C10.4659 14.3665 10.8951 13.8164 11.1372 13.1778C11.3793 12.5392 11.4232 11.8418 11.2631 11.1776C11.1032 10.514 10.7469 9.91428 10.2409 9.45806C10.2405 9.45773 10.2401 9.4574 10.2398 9.45708L10.2143 9.43385V2.87927C10.2143 2.28987 9.98186 1.7239 9.56701 1.30604C9.15203 0.888064 8.58843 0.652586 8 0.652586Z" stroke="black" stroke-opacity="0.8956"/>
</g>
</g>
<defs>
<clipPath id="clip0_85363_3406">
<rect width="16" height="16" fill="white" transform="translate(0 0.00146484)"/>
</clipPath>
</defs>
</svg>
