<svg width="16" height="16" viewBox="0 0 16 16" fill="none" xmlns="http://www.w3.org/2000/svg">
<g id="icon_compas" clip-path="url(#clip0_85363_3711)">
<g id="Vector">
<path d="M4 12.0015L6.56 6.56146L12 4.00146L9.44 9.44147L4 12.0015ZM8 7.28147C7.80904 7.28147 7.62591 7.35732 7.49088 7.49235C7.35586 7.62737 7.28 7.81051 7.28 8.00146C7.28 8.19242 7.35586 8.37556 7.49088 8.51058C7.62591 8.64561 7.80904 8.72147 8 8.72147C8.19096 8.72147 8.37409 8.64561 8.50912 8.51058C8.64414 8.37556 8.72 8.19242 8.72 8.00146C8.72 7.81051 8.64414 7.62737 8.50912 7.49235C8.37409 7.35732 8.19096 7.28147 8 7.28147ZM8 0.00146484C9.05058 0.00146484 10.0909 0.208391 11.0615 0.610429C12.0321 1.01247 12.914 1.60174 13.6569 2.34461C14.3997 3.08748 14.989 3.96939 15.391 4.94C15.7931 5.9106 16 6.95089 16 8.00146C16 10.1232 15.1571 12.158 13.6569 13.6583C12.1566 15.1586 10.1217 16.0015 8 16.0015C6.94943 16.0015 5.90914 15.7945 4.93853 15.3925C3.96793 14.9905 3.08601 14.4012 2.34315 13.6583C0.842855 12.158 0 10.1232 0 8.00146C0 5.87973 0.842855 3.8449 2.34315 2.34461C3.84344 0.84432 5.87827 0.00146484 8 0.00146484ZM8 1.60146C6.30261 1.60146 4.67475 2.27575 3.47452 3.47598C2.27428 4.67621 1.6 6.30408 1.6 8.00146C1.6 9.69885 2.27428 11.3267 3.47452 12.5269C4.67475 13.7272 6.30261 14.4015 8 14.4015C9.69739 14.4015 11.3253 13.7272 12.5255 12.5269C13.7257 11.3267 14.4 9.69885 14.4 8.00146C14.4 6.30408 13.7257 4.67621 12.5255 3.47598C11.3253 2.27575 9.69739 1.60146 8 1.60146Z" fill="black" fill-opacity="0.8956"/>
<path d="M12.8192 3.06335C11.5312 1.80632 9.80195 1.10146 8 1.10146C6.17001 1.10146 4.41496 1.82843 3.12096 3.12243C1.82696 4.41643 1.1 6.17147 1.1 8.00146C1.1 9.80342 1.80486 11.5327 3.06188 12.8207L2.95621 13.0453L3.18077 12.9396C4.46876 14.1966 6.19805 14.9015 8 14.9015C9.82999 14.9015 11.585 14.1745 12.879 12.8805C14.173 11.5865 14.9 9.83146 14.9 8.00146C14.9 6.19951 14.1951 4.47023 12.9381 3.18223L13.0438 2.95767L12.8192 3.06335ZM5.04379 10.9577L6.93577 6.93723L10.9562 5.04526L9.06423 9.0657L5.04379 10.9577ZM7.13733 7.13879L7.49088 7.49235L7.13733 7.13879C6.90854 7.36759 6.78 7.6779 6.78 8.00146C6.78 8.32503 6.90853 8.63534 7.13733 8.86414C7.36612 9.09293 7.67644 9.22147 8 9.22147C8.32356 9.22147 8.63388 9.09293 8.86267 8.86414C9.09146 8.63534 9.22 8.32503 9.22 8.00146C9.22 7.6779 9.09146 7.36759 8.86267 7.13879C8.63388 6.91 8.32356 6.78147 8 6.78147C7.67644 6.78147 7.36612 6.91 7.13733 7.13879ZM8 0.501465C8.98491 0.501465 9.96018 0.695458 10.8701 1.07237C11.7801 1.44928 12.6069 2.00172 13.3033 2.69816C13.9997 3.3946 14.5522 4.2214 14.9291 5.13134C15.306 6.04128 15.5 7.01655 15.5 8.00146C15.5 9.99059 14.7098 11.8982 13.3033 13.3048C11.8968 14.7113 9.98912 15.5015 8 15.5015C7.01509 15.5015 6.03982 15.3075 5.12987 14.9306C4.21993 14.5537 3.39314 14.0012 2.6967 13.3048C1.29018 11.8982 0.5 9.99059 0.5 8.00146C0.5 6.01234 1.29018 4.10469 2.6967 2.69816C4.10322 1.29164 6.01088 0.501465 8 0.501465Z" stroke="black" stroke-opacity="0.8956"/>
</g>
</g>
<defs>
<clipPath id="clip0_85363_3711">
<rect width="16" height="16" fill="white" transform="translate(0 0.00146484)"/>
</clipPath>
</defs>
</svg>
