<svg width="13" height="16" viewBox="0 0 13 16" fill="none" xmlns="http://www.w3.org/2000/svg">
<g id="&#240;&#159;&#166;&#134; icon &#34;Hand Left&#34;">
<path id="Vector" d="M13 10.0213C13 11.077 12.7933 12.1224 12.3917 13.0987L11.807 14.5197C11.5783 15.0756 11.1606 15.5327 10.6275 15.8103C10.3614 15.9489 10.0657 16.0213 9.7657 16.0213H7.22C6.44723 16.0213 5.73328 15.6086 5.34758 14.939C4.84848 14.0725 4.33258 13.2356 3.63495 12.5089L2.30661 11.1252C1.86531 10.6655 1.34187 10.2772 0.8242 9.89326C0.62414 9.74486 0.42486 9.59706 0.23157 9.44606C0.08542 9.33187 0 9.15676 0 8.97126C0 8.21776 0.53642 7.39661 1.21659 7.18128C2.12686 6.87499 3.01274 6.96856 3.8688 7.3966C3.9136 7.41901 3.95729 7.44262 4 7.46733V2.50146C4 1.67303 4.67157 1.00146 5.5 1.00146C5.69512 1.00146 5.88155 1.03872 6.05254 1.1065C6.22589 0.469695 6.80827 0.00146484 7.5 0.00146484C8.1917 0.00146484 8.7741 0.469695 8.9475 1.1065C9.1185 1.03872 9.3049 1.00146 9.5 1.00146C10.3284 1.00146 11 1.67303 11 2.50146V2.58681C11.1564 2.53154 11.3247 2.50146 11.5 2.50146C12.3284 2.50146 13 3.17303 13 4.00146V10.0213ZM9 2.50146V6.50146C9 6.77761 8.7761 7.00146 8.5 7.00146C8.2239 7.00146 8 6.77761 8 6.50146V1.50146C8 1.22532 7.7761 1.00146 7.5 1.00146C7.2239 1.00146 7 1.22532 7 1.50146V6.50146C7 6.77761 6.77614 7.00146 6.5 7.00146C6.22386 7.00146 6 6.77761 6 6.50146V2.50146C6 2.22532 5.77614 2.00146 5.5 2.00146C5.22386 2.00146 5 2.22532 5 2.50146L4.9996 8.50116C5.00498 8.63566 4.9563 8.77206 4.85355 8.87476C4.65829 9.07006 4.34171 9.07006 4.14645 8.87476L4.13817 8.86646C3.91843 8.64676 3.70391 8.43217 3.42158 8.29107C2.72516 7.94284 1.19944 7.71669 1.01528 8.78936C1.19117 8.92676 1.37122 9.06166 1.55185 9.19706C2.06647 9.58276 2.58591 9.97206 3.028 10.4326L4.35634 11.8163C5.11026 12.6017 5.6745 13.503 6.21411 14.4399C6.42132 14.7996 6.80486 15.0213 7.22 15.0213H9.7657C9.9049 15.0213 10.0421 14.9877 10.1655 14.9234C10.4894 14.7547 10.7433 14.477 10.8822 14.1392L11.4669 12.7182C11.8189 11.8627 12 10.9465 12 10.0213V4.00146C12 3.72532 11.7761 3.50146 11.5 3.50146C11.2239 3.50146 11 3.72532 11 4.00146V7.50146C11 7.77761 10.7761 8.00146 10.5 8.00146C10.2239 8.00146 10 7.77761 10 7.50146V2.50146C10 2.22532 9.7761 2.00146 9.5 2.00146C9.2239 2.00146 9 2.22532 9 2.50146Z" fill="black" fill-opacity="0.8956"/>
</g>
</svg>
