<svg width="16" height="16" viewBox="0 0 16 16" fill="none" xmlns="http://www.w3.org/2000/svg">
<g id="&#240;&#159;&#166;&#134; icon &#34;Speaker&#34;">
<path id="Vector" d="M8.83684 0.0533949C9.08134 0.156556 9.24028 0.396131 9.24028 0.661487V15.182C9.24028 15.4478 9.08074 15.6878 8.83554 15.7906C8.59034 15.8935 8.30738 15.8391 8.11772 15.6528L4.2547 11.8577H1.98007C0.886515 11.8577 0 10.9712 0 9.87766V5.93207C0 4.83851 0.886515 3.952 1.98007 3.952H4.25634L8.11972 0.188713C8.30982 0.00353678 8.59232 -0.0497666 8.83684 0.0533949ZM12.8542 1.39963L12.9685 1.47725L13.0976 1.58888C13.1806 1.66351 13.2952 1.7716 13.4309 1.91249C13.7019 2.19391 14.0591 2.60859 14.4155 3.15145C15.1289 4.23799 15.8448 5.84839 15.8448 7.92707C15.8448 10.0059 15.1287 11.6139 14.415 12.698C14.0584 13.2397 13.7011 13.6531 13.43 13.9336L13.2435 14.1196L12.997 14.3427L12.9534 14.3785C12.6676 14.6048 12.2516 14.5575 12.0252 14.2718C11.8244 14.0184 11.8396 13.663 12.0451 13.428L12.2156 13.2729C12.2772 13.2179 12.3689 13.1319 12.4808 13.0162C12.7051 12.7841 13.0083 12.4342 13.3125 11.9723C13.9198 11.0494 14.5248 9.68997 14.5248 7.92707C14.5248 6.16405 13.9198 4.80171 13.3119 3.87591C13.0585 3.48982 12.8056 3.18146 12.5984 2.95449L12.375 2.7218L12.1317 2.49817C11.847 2.27104 11.7993 1.85548 12.0262 1.57044C12.228 1.31696 12.5785 1.25157 12.8542 1.39963ZM7.92024 2.22583L4.9852 5.08481C4.86196 5.20487 4.69672 5.27204 4.52466 5.27204H1.98007C1.61555 5.27204 1.32004 5.56755 1.32004 5.93207V9.87766C1.32004 10.2422 1.61555 10.5377 1.98007 10.5377H4.52466C4.69768 10.5377 4.86378 10.6056 4.98721 10.7268L7.92024 13.6083V2.22583ZM11.5352 4.03959L11.6666 4.13164L11.8431 4.29762L11.9144 4.37238C12.0642 4.53399 12.2575 4.77073 12.4489 5.08552C12.8337 5.71852 13.2061 6.66028 13.2061 7.91981C13.2061 9.17931 12.8337 10.1221 12.4492 10.756C12.258 11.0712 12.0648 11.3086 11.9151 11.4705L11.781 11.6082L11.6882 11.694L11.6358 11.7385L11.552 11.7765C11.3772 11.8465 10.9685 11.9606 10.7082 11.6349C10.5069 11.3831 10.5199 11.0292 10.7226 10.7932L10.9001 10.6226L10.9455 10.5748C11.0438 10.4684 11.1813 10.3011 11.3205 10.0714C11.5972 9.61536 11.886 8.9066 11.886 7.91981C11.886 6.93309 11.5972 6.22576 11.3209 5.77124C11.2165 5.59951 11.1131 5.46285 11.0266 5.36061L10.9009 5.22217L10.8105 5.13637C10.527 4.91035 10.4804 4.49584 10.7072 4.21074C10.9089 3.95717 11.2594 3.89164 11.5352 4.03959Z" fill="black" fill-opacity="0.8956"/>
</g>
</svg>
