<svg width="16" height="16" viewBox="0 0 16 16" fill="none" xmlns="http://www.w3.org/2000/svg">
<g id="&#240;&#159;&#166;&#134; icon &#34;Weather Sunny&#34;">
<path id="Vector" d="M7.9882 13.7859C8.23385 13.7859 8.43816 13.9629 8.48052 14.1964L8.48859 14.2863V15.5011C8.48859 15.7774 8.26456 16.0015 7.9882 16.0015C7.74255 16.0015 7.53825 15.8245 7.49588 15.591L7.48782 15.5011V14.2863C7.48782 14.01 7.71185 13.7859 7.9882 13.7859ZM12.7892 12.0759L13.6482 12.9349C13.8436 13.1303 13.8436 13.4471 13.6482 13.6425C13.4528 13.838 13.1359 13.838 12.9405 13.6425L12.0816 12.7836C11.8861 12.5882 11.8861 12.2713 12.0816 12.0759C12.277 11.8805 12.5938 11.8805 12.7892 12.0759ZM3.89445 12.0759C4.08986 12.2713 4.08986 12.5882 3.89445 12.7836L3.03547 13.6425C2.84006 13.838 2.52323 13.838 2.32782 13.6425C2.13241 13.4471 2.13241 13.1303 2.32782 12.9349L3.1868 12.0759C3.38221 11.8805 3.69904 11.8805 3.89445 12.0759ZM7.99854 3.51385C10.4755 3.51385 12.4834 5.52181 12.4834 7.99876C12.4834 10.4757 10.4755 12.4837 7.99854 12.4837C5.52159 12.4837 3.51363 10.4757 3.51363 7.99876C3.51363 5.52181 5.52159 3.51385 7.99854 3.51385ZM7.99854 4.51462C6.0743 4.51462 4.5144 6.07452 4.5144 7.99876C4.5144 9.92299 6.0743 11.4829 7.99854 11.4829C9.92277 11.4829 11.4827 9.92299 11.4827 7.99876C11.4827 6.07452 9.92277 4.51462 7.99854 4.51462ZM15.4822 7.5159C15.7585 7.5159 15.9826 7.73993 15.9826 8.01628C15.9826 8.26193 15.8056 8.46624 15.5721 8.50861L15.4822 8.51667H14.2674C13.9911 8.51667 13.767 8.29264 13.767 8.01628C13.767 7.77063 13.944 7.56633 14.1775 7.52396L14.2674 7.5159H15.4822ZM1.71516 7.49257C1.99151 7.49257 2.21554 7.7166 2.21554 7.99295C2.21554 8.2386 2.03853 8.44291 1.8051 8.48528L1.71516 8.49334H0.500385C0.22403 8.49334 0 8.26931 0 7.99295C0 7.7473 0.177011 7.543 0.41044 7.50063L0.500385 7.49257H1.71516ZM2.96617 2.30249L3.03547 2.36039L3.89445 3.21937C4.08986 3.41478 4.08986 3.7316 3.89445 3.92702C3.72075 4.10072 3.45112 4.12002 3.2561 3.98492L3.1868 3.92702L2.32782 3.06804C2.13241 2.87263 2.13241 2.5558 2.32782 2.36039C2.50152 2.18669 2.77115 2.16739 2.96617 2.30249ZM13.6482 2.36039C13.8219 2.53409 13.8412 2.80372 13.7061 2.99874L13.6482 3.06804L12.7892 3.92702C12.5938 4.12243 12.277 4.12243 12.0816 3.92702C11.9079 3.75332 11.8886 3.48369 12.0237 3.28867L12.0816 3.21937L12.9405 2.36039C13.1359 2.16498 13.4528 2.16498 13.6482 2.36039ZM7.99149 0.00146484C8.23714 0.00146484 8.44144 0.178476 8.48381 0.411905L8.49187 0.50185V1.71662C8.49187 1.99298 8.26784 2.21701 7.99149 2.21701C7.74584 2.21701 7.54153 2.04 7.49917 1.80657L7.4911 1.71662V0.50185C7.4911 0.225495 7.71513 0.00146484 7.99149 0.00146484Z" fill="black" fill-opacity="0.8956"/>
</g>
</svg>
