<svg width="16" height="17" viewBox="0 0 16 17" fill="none" xmlns="http://www.w3.org/2000/svg">
<g id="&#240;&#159;&#166;&#134; icon &#34;Play&#34;">
<path id="Vector" d="M0 1.76521V14.3544C0 15.3283 0.789475 16.1178 1.76334 16.1178C2.06301 16.1178 2.35774 16.0414 2.6197 15.8959L14.7593 9.15165C15.6106 8.6787 15.9174 7.60517 15.4444 6.75386C15.2675 6.43537 14.9962 6.1795 14.6679 6.02144L2.52831 0.176439C1.65085 -0.24604 0.597047 0.122792 0.174568 1.00025C0.0883918 1.17923 0.0332854 1.37105 0.0111183 1.56751L0 1.76521ZM1.17556 1.76521C1.17556 1.67692 1.19545 1.58977 1.23375 1.51022C1.37458 1.21774 1.72585 1.09479 2.01833 1.23562L14.158 7.08062C14.2674 7.13331 14.3578 7.2186 14.4168 7.32476C14.5744 7.60853 14.4722 7.96638 14.1884 8.12403L2.04879 14.8683C1.96147 14.9168 1.86323 14.9422 1.76334 14.9422C1.43872 14.9422 1.17556 14.6791 1.17556 14.3544V1.76521Z" fill="black" fill-opacity="0.8956"/>
</g>
</svg>
