<svg width="16" height="16" viewBox="0 0 16 16" fill="none" xmlns="http://www.w3.org/2000/svg">
<g id="&#240;&#159;&#166;&#134; icon &#34;Calendar&#34;">
<path id="Vector" d="M13.1429 0.00146484C14.6577 0.00146484 15.8972 1.18037 15.9939 2.67075L16 2.85861V13.1443C16 14.6591 14.8211 15.8987 13.3307 15.9954L13.1429 16.0015H2.85714C1.34231 16.0015 0.102813 14.8226 0.00607736 13.3322L0 13.1443V2.85861C0 1.34377 1.1789 0.104278 2.66929 0.0075422L2.85714 0.00146484H13.1429ZM14.8571 4.57289H1.14286V13.1443C1.14286 14.0354 1.82273 14.7677 2.69204 14.8508L2.85714 14.8586H13.1429C14.0339 14.8586 14.7662 14.1787 14.8493 13.3094L14.8571 13.1443V4.57289ZM4.57143 10.2872C5.20261 10.2872 5.71429 10.7988 5.71429 11.43C5.71429 12.0612 5.20261 12.5729 4.57143 12.5729C3.94025 12.5729 3.42857 12.0612 3.42857 11.43C3.42857 10.7988 3.94025 10.2872 4.57143 10.2872ZM8 10.2872C8.6312 10.2872 9.14286 10.7988 9.14286 11.43C9.14286 12.0612 8.6312 12.5729 8 12.5729C7.36881 12.5729 6.85714 12.0612 6.85714 11.43C6.85714 10.7988 7.36881 10.2872 8 10.2872ZM4.57143 6.85861C5.20261 6.85861 5.71429 7.37028 5.71429 8.00146C5.71429 8.63267 5.20261 9.14432 4.57143 9.14432C3.94025 9.14432 3.42857 8.63267 3.42857 8.00146C3.42857 7.37028 3.94025 6.85861 4.57143 6.85861ZM8 6.85861C8.6312 6.85861 9.14286 7.37028 9.14286 8.00146C9.14286 8.63267 8.6312 9.14432 8 9.14432C7.36881 9.14432 6.85714 8.63267 6.85714 8.00146C6.85714 7.37028 7.36881 6.85861 8 6.85861ZM11.4286 6.85861C12.0598 6.85861 12.5714 7.37028 12.5714 8.00146C12.5714 8.63267 12.0598 9.14432 11.4286 9.14432C10.7974 9.14432 10.2857 8.63267 10.2857 8.00146C10.2857 7.37028 10.7974 6.85861 11.4286 6.85861ZM13.1429 1.14432H2.85714C1.96606 1.14432 1.23377 1.82419 1.1507 2.69351L1.14286 2.85861V3.43004H14.8571V2.85861C14.8571 1.96752 14.1772 1.23524 13.308 1.15217L13.1429 1.14432Z" fill="black" fill-opacity="0.8956"/>
</g>
</svg>
